<svg xmlns="http://www.w3.org/2000/svg" enable-background="new 0 0 800 600" viewBox="0 0 800 600"><linearGradient id="a" x1="232.849" x2="581.688" y1="31.091" y2="531.6" gradientUnits="userSpaceOnUse"><stop offset="0" stop-color="#270036"/><stop offset=".594" stop-color="#4f008b"/><stop offset="1" stop-color="#4c24b1"/></linearGradient><path fill="url(#a)" d="M739.37,357.24c-160.78,139.86-45.15,248.44-427.9,219.96C132.28,563.85,43.53,427.65,22.98,303.2
	C-2.5,148.91,94.99,39.38,363.38,39.38c121.07,0,230.3-36.53,306.56,12.65C776.24,120.61,818.47,288.44,739.37,357.24z"/><radialGradient id="b" cx="462.041" cy="278.36" r="206.646" gradientUnits="userSpaceOnUse"><stop offset="0" stop-color="#3e82bf"/><stop offset="1" stop-color="#3e82bf" stop-opacity="0"/></radialGradient><rect width="413.29" height="413.29" x="255.39" y="71.71" fill="url(#b)"/><circle cx="692.01" cy="176.48" r="5.71" fill="#b3efff"/><circle cx="179.39" cy="135.38" r="5.71" fill="#b3efff"/><defs><filter id="c" width="100.17" height="100.16" x="534.23" y="47.5" filterUnits="userSpaceOnUse"><feFlood flood-color="#fff" flood-opacity="1" result="back"/><feBlend in="SourceGraphic" in2="back"/></filter></defs><mask id="e" width="100.17" height="100.16" x="534.23" y="47.5" maskUnits="userSpaceOnUse"><g filter="url(#c)"><defs><filter id="d" width="100.17" height="100.16" x="534.23" y="47.5" filterUnits="userSpaceOnUse"><feFlood flood-color="#fff" flood-opacity="1" result="back"/><feBlend in="SourceGraphic" in2="back"/></filter></defs><linearGradient id="f" x1="184.085" x2="267.354" y1="325.452" y2="381.143" gradientTransform="scale(-1 1) rotate(44.854 128.14 -754.315)" gradientUnits="userSpaceOnUse"><stop offset="0" stop-color="#4d4d4d"/><stop offset=".293" stop-color="#898989"/><stop offset=".628" stop-color="#c8c8c8"/><stop offset=".873" stop-color="#f0f0f0"/><stop offset="1" stop-color="#fff"/></linearGradient><path fill="url(#f)" d="M548.8,132.9c19.52,19.61,51.22,19.69,70.83,0.18c19.61-19.51,19.69-51.22,0.18-70.83
					c-19.51-19.61-51.22-19.69-70.83-0.18C529.38,81.58,529.3,113.29,548.8,132.9z" mask="url(#e)"/></g></mask><linearGradient id="g" x1="184.085" x2="267.354" y1="325.452" y2="381.143" gradientTransform="scale(-1 1) rotate(44.854 128.14 -754.315)" gradientUnits="userSpaceOnUse"><stop offset="0" stop-color="#88cfda"/><stop offset=".008" stop-color="#89cfd9"/><stop offset=".478" stop-color="#c8d9bb"/><stop offset=".822" stop-color="#f0dfa7"/><stop offset="1" stop-color="#ffe1a0"/></linearGradient><path fill="url(#g)" d="M548.8,132.9c19.52,19.61,51.22,19.69,70.83,0.18c19.61-19.51,19.69-51.22,0.18-70.83
			c-19.51-19.61-51.22-19.69-70.83-0.18C529.38,81.58,529.3,113.29,548.8,132.9z"/><linearGradient id="h" x1="254.745" x2="279.862" y1="78.292" y2="78.292" gradientUnits="userSpaceOnUse"><stop offset="0" stop-color="#7633ff"/><stop offset=".159" stop-color="#7137ff"/><stop offset=".353" stop-color="#6243ff"/><stop offset=".568" stop-color="#4957ff"/><stop offset=".794" stop-color="#2672ff"/><stop offset="1" stop-color="#0090ff"/></linearGradient><circle cx="267.3" cy="78.29" r="12.56" fill="url(#h)"/><linearGradient id="i" x1="56.239" x2="75.077" y1="204.906" y2="204.906" gradientUnits="userSpaceOnUse"><stop offset="0" stop-color="#7633ff"/><stop offset=".159" stop-color="#7137ff"/><stop offset=".353" stop-color="#6243ff"/><stop offset=".568" stop-color="#4957ff"/><stop offset=".794" stop-color="#2672ff"/><stop offset="1" stop-color="#0090ff"/></linearGradient><circle cx="65.66" cy="204.91" r="9.42" fill="url(#i)" opacity=".6"/><circle cx="430.56" cy="85.14" r="5.71" fill="#125cae"/><polygon fill="#fff" points="346.08 81.95 347.28 84.39 349.97 84.78 348.02 86.67 348.48 89.35 346.08 88.09 343.68 89.35 344.13 86.67 342.19 84.78 344.88 84.39"/><polygon fill="#fff" points="103.34 143.96 104.54 146.4 107.23 146.79 105.28 148.69 105.74 151.36 103.34 150.1 100.93 151.36 101.39 148.69 99.45 146.79 102.14 146.4" opacity=".4"/><polygon fill="#fff" points="60.52 289.54 61.72 291.98 64.41 292.37 62.47 294.27 62.92 296.94 60.52 295.68 58.12 296.94 58.58 294.27 56.63 292.37 59.32 291.98"/><polygon fill="#fff" points="744.91 240.32 746.11 242.76 748.8 243.15 746.86 245.05 747.31 247.72 744.91 246.46 742.51 247.72 742.97 245.05 741.02 243.15 743.71 242.76"/><polygon fill="#fff" points="707.19 110.1 708.39 112.54 711.08 112.93 709.14 114.83 709.6 117.5 707.19 116.24 704.79 117.5 705.25 114.83 703.3 112.93 705.99 112.54"/><g><linearGradient id="j" x1="688.819" x2="309.556" y1="188.508" y2="417.79" gradientUnits="userSpaceOnUse"><stop offset="0" stop-color="#1dacff"/><stop offset=".136" stop-color="#1ca9fb"/><stop offset=".274" stop-color="#1b9fef"/><stop offset=".414" stop-color="#188eda"/><stop offset=".555" stop-color="#1476bd"/><stop offset=".696" stop-color="#0f5898"/><stop offset=".839" stop-color="#08326b"/><stop offset=".979" stop-color="#010737"/><stop offset="1" stop-color="#00002e"/></linearGradient><polyline fill="url(#j)" points="312.44 366.97 636.12 204.03 349.62 442.64"/><linearGradient id="k" x1="648.746" x2="431.533" y1="191.323" y2="322.342" gradientUnits="userSpaceOnUse"><stop offset="0" stop-color="#1dacff"/><stop offset=".136" stop-color="#1ca9fb"/><stop offset=".274" stop-color="#1b9fef"/><stop offset=".414" stop-color="#188eda"/><stop offset=".555" stop-color="#1476bd"/><stop offset=".696" stop-color="#0f5898"/><stop offset=".839" stop-color="#08326b"/><stop offset=".979" stop-color="#010737"/><stop offset="1" stop-color="#00002e"/></linearGradient><polygon fill="url(#k)" points="488.29 300.45 636.12 204.03 457.84 294.13"/><g><linearGradient id="l" x1="10.566" x2="214.295" y1="511.44" y2="511.44" gradientUnits="userSpaceOnUse"><stop offset="0" stop-color="#88aeda"/><stop offset=".042" stop-color="#8eadd4"/><stop offset=".496" stop-color="#cba895"/><stop offset=".828" stop-color="#f1a56d"/><stop offset="1" stop-color="#ffa45e"/></linearGradient><path fill="url(#l)" d="M183.4,539.92c-15.04,11.18-50.63,21.43-50.63,21.43s2.85-1.63,7.53-3.94c4.68-2.32,8.56-7.22,8.56-7.22
					s-9.56,5.83-22.85,10.32c-13.28,4.49-31.05,7.75-31.05,7.75s3.61-1.75,9.94-5.89c6.34-4.14,17.23-11.35,17.23-11.35
					s-27.18,14.89-68.73,17.75c-16.26,1.12-42.85,6.94-42.85,6.94s12.85-11.08,18.96-17.47c9.71-10.14,21-26.45,29.85-36.75
					c13.18-15.34,40.24-42.32,40.24-42.32s0,0-5.44,2.44c-5.44,2.44-12.02,5.06-12.02,5.06s27.21-25.94,47.46-33.76
					c22.82-8.81,53.27-4.79,53.27-4.79s2.68,13.02,12.64,29.88c10.3,17.42,18.77,24.52,18.77,24.52S206.44,522.8,183.4,539.92z"/><linearGradient id="m" x1="57.134" x2="210.242" y1="503.452" y2="503.452" gradientUnits="userSpaceOnUse"><stop offset="0" stop-color="#88cfda"/><stop offset=".042" stop-color="#8ed0d4"/><stop offset=".496" stop-color="#cbd995"/><stop offset=".828" stop-color="#f1df6d"/><stop offset="1" stop-color="#ffe15e"/></linearGradient><path fill="url(#m)" d="M187.03,524.86c-11.3,8.4-38.05,16.11-38.05,16.11s2.14-1.22,5.66-2.96c3.52-1.74,6.43-5.43,6.43-5.43
					s-7.19,4.38-17.17,7.75c-9.98,3.37-23.33,5.83-23.33,5.83s2.71-1.32,7.47-4.43c4.76-3.11,12.95-8.53,12.95-8.53
					s-20.43,11.19-51.66,13.34c-12.22,0.84-32.2,5.21-32.2,5.21s9.66-8.33,14.25-13.13c7.3-7.62,15.78-19.87,22.44-27.62
					c9.91-11.53,30.24-31.8,30.24-31.8s0,0-4.09,1.83c-4.09,1.83-9.04,3.8-9.04,3.8s20.45-19.49,35.67-25.37
					c17.15-6.62,40.04-3.6,40.04-3.6s2.01,9.79,9.5,22.45c7.74,13.1,14.11,18.42,14.11,18.42S204.34,511.99,187.03,524.86z"/><g><linearGradient id="n" x1="365.527" x2="182.245" y1="453.813" y2="215.064" gradientUnits="userSpaceOnUse"><stop offset="0" stop-color="#a1baff"/><stop offset=".488" stop-color="#fff"/></linearGradient><path fill="url(#n)" d="M204.15,418.8c1.72-2.59,49.7-54.01,108.02-84.18c58.32-30.17,84.75-32.75,84.75-32.75
					s14.65,10.34,29.3,37.35c14.65,27.01,18.96,37.92,17.81,41.37c-1.15,3.45-58.03,64.93-120.38,90.5
					c-62.34,25.57-69.52,27.01-69.52,27.01s-7.76-0.86-16.66-14.36s-29.59-47.12-31.89-54.59S204.15,418.8,204.15,418.8z"/><linearGradient id="o" x1="477.637" x2="442.291" y1="354.36" y2="296.689" gradientUnits="userSpaceOnUse"><stop offset="0" stop-color="#3d00ba"/><stop offset=".745" stop-color="#ce00ff"/></linearGradient><path fill="url(#o)" d="M491.15,298.71c-3.45-4.88-8.04-5.75-35.91-5.46c-27.87,0.29-56.88,9.48-56.88,9.48l0.33,0.54
					c4.32,3.61,15.92,14.54,27.54,35.95c11.03,20.33,16.19,31.54,17.59,37.31l1.09,1.76c0,0,0,0,4.88-4.6s24.99-34.19,32.46-47.98
					C489.72,311.93,494.6,303.59,491.15,298.71z"/><linearGradient id="p" x1="224.546" x2="341.474" y1="513.606" y2="513.606" gradientUnits="userSpaceOnUse"><stop offset="0" stop-color="#3d00ba"/><stop offset=".745" stop-color="#ce00ff"/></linearGradient><path fill="url(#p)" d="M256.44,497.23l-31.89,67.23c0,0,31.31-12.93,67.8-37.06c36.49-24.13,39.36-27.87,39.36-27.87l9.77-36.77
					C341.47,462.76,282.87,489.76,256.44,497.23z"/><linearGradient id="q" x1="251.133" x2="181.034" y1="402.142" y2="374.561" gradientUnits="userSpaceOnUse"><stop offset="0" stop-color="#3d00ba"/><stop offset=".745" stop-color="#ce00ff"/></linearGradient><path fill="url(#q)" d="M275.68,357.03l-33.61-6.89c0,0-29.59,12.35-54.3,28.44c-24.71,16.09-48.84,34.19-48.84,34.19l67.51,3.45
					C206.45,416.21,254.14,367.37,275.68,357.03z"/><linearGradient id="r" x1="239.995" x2="191.732" y1="505.02" y2="431.764" gradientUnits="userSpaceOnUse"><stop offset="0" stop-color="#270036"/><stop offset=".438" stop-color="#4f008b"/><stop offset="1" stop-color="#4c24b1"/></linearGradient><path fill="url(#r)" d="M237.47,483.73c-8.91-13.5-29.59-47.12-31.89-54.59c-0.63-2.03-1.01-3.71-1.25-5.1l-17.42,12.85
					c0,0-1.15,12.64,14.36,36.2c15.51,23.56,23.56,31.6,27.29,31.31c3.73-0.29,19.82-8.62,19.82-8.62l-0.33-0.54
					C245.14,493.21,241.42,489.71,237.47,483.73z"/><linearGradient id="s" x1="183.308" x2="217.782" y1="444.933" y2="505.261" gradientUnits="userSpaceOnUse"><stop offset="0" stop-color="#7633ff"/><stop offset=".159" stop-color="#7137ff"/><stop offset=".353" stop-color="#6243ff"/><stop offset=".568" stop-color="#4957ff"/><stop offset=".794" stop-color="#2672ff"/><stop offset="1" stop-color="#0090ff"/></linearGradient><path fill="url(#s)" d="M188.06,444.37l-5.17,3.73c0,0-0.57,8.04,11.2,27.58c11.78,19.54,18.96,26.72,22.12,27.01
					s5.46-2.59,5.46-2.59S194.09,469.36,188.06,444.37z"/><linearGradient id="t" x1="309.4" x2="159.441" y1="397.327" y2="477.477" gradientUnits="userSpaceOnUse"><stop offset="0" stop-color="#7633ff"/><stop offset=".132" stop-color="#6342ff"/><stop offset=".534" stop-color="#2e6cff"/><stop offset=".835" stop-color="#0d86ff"/><stop offset="1" stop-color="#0090ff"/></linearGradient><path fill="url(#t)" d="M296.66,401.85l-25.86,8.91c0,0-40.09,22.24-53.15,30.17c-16.38,9.94-64.35,41.66-64.35,41.66l2.01,4.31
					l118.94-70.96l26.14-10.06L296.66,401.85z"/><linearGradient id="u" x1="155.308" x2="300.391" y1="446.38" y2="446.38" gradientUnits="userSpaceOnUse"><stop offset="0" stop-color="#3d00ba"/><stop offset=".745" stop-color="#ce00ff"/></linearGradient><path fill="url(#u)" d="M155.31,486.89l65.5-30.17c0,0,25.16-14.38,33.33-19.54c11.81-7.45,46.25-31.31,46.25-31.31l-27.29,10.34
					L155.31,486.89z"/></g></g><g><path d="M414.45,158.51l6.32-2.59c0,0,1.59,0.73,3.16,4.31c2.01,4.6,2.3,7.76,2.3,7.76l-6.32,3.45
			C419.9,171.44,416.74,162.82,414.45,158.51z"/><linearGradient id="v" x1="331.418" x2="421.176" y1="186.667" y2="186.667" gradientUnits="userSpaceOnUse"><stop offset="0" stop-color="#7633ff"/><stop offset=".159" stop-color="#7137ff"/><stop offset=".353" stop-color="#6243ff"/><stop offset=".568" stop-color="#4957ff"/><stop offset=".794" stop-color="#2672ff"/><stop offset="1" stop-color="#0090ff"/></linearGradient><path fill="url(#v)" d="M356.41,215.4l64.64-39.07c0,0,0.77-6.13-1.53-11.49c-2.3-5.36-4.98-6.9-4.98-6.9l-83.12,37.64"/><linearGradient id="w" x1="318.639" x2="363.456" y1="330.106" y2="184.162" gradientUnits="userSpaceOnUse"><stop offset="0" stop-color="#7633ff"/><stop offset=".111" stop-color="#6640ff"/><stop offset=".524" stop-color="#2f6bff"/><stop offset=".833" stop-color="#0d86ff"/><stop offset="1" stop-color="#0090ff"/></linearGradient><path fill="url(#w)" d="M327.2,195.38c0,0-12.45,13.69-15.32,28.63s-2.59,39.93-3.45,48.27c-0.86,8.33-5.17,23.85-7.76,31.03
			s-3.45,17.24-3.45,17.24s18.1,2.01,38.21-0.29s27.29-4.88,27.29-4.88s-1.15-23.56-3.26-31.22c-2.11-7.66-2.68-10.34-2.68-10.34
			s0.77-2.87,2.68-8.04c1.92-5.17,11.49-23.56,9.96-30.64c-1.53-7.09-5.36-17.43-8.62-20.88s-4.6-4.02-4.6-4.02
			s-7.47-10.73-12.64-15.71c-5.17-4.98-11.49-4.41-11.49-4.41L327.2,195.38z"/><linearGradient id="x" x1="332.004" x2="359.477" y1="255.825" y2="255.825" gradientUnits="userSpaceOnUse"><stop offset="0" stop-color="#70b"/><stop offset="1" stop-color="#00008b"/><stop offset="1"/></linearGradient><path fill="url(#x)" d="M332,241.08c0,0,3.35,9.77,8.91,16.28c5.55,6.51,16.95,13.22,16.95,13.22l1.62-4.8l-26.71-24.69" opacity=".5"/><linearGradient id="y" x1="327.269" x2="353.53" y1="198.294" y2="198.294" gradientUnits="userSpaceOnUse"><stop offset="0" stop-color="#7633ff"/><stop offset=".159" stop-color="#7137ff"/><stop offset=".353" stop-color="#6243ff"/><stop offset=".568" stop-color="#4957ff"/><stop offset=".794" stop-color="#2672ff"/><stop offset="1" stop-color="#0090ff"/></linearGradient><path fill="url(#y)" d="M353.53,206.49c-2.64-3.58-6.74-8.88-9.95-11.97c-5.17-4.98-11.49-4.41-11.49-4.41l-4.82,5.2
			c3.46,2.12,12,3.69,17.46,6.87C348.05,204.11,351.08,205.51,353.53,206.49z"/><linearGradient id="z" x1="329.982" x2="355.838" y1="282.24" y2="282.24" gradientUnits="userSpaceOnUse"><stop offset="0" stop-color="#70b"/><stop offset="1" stop-color="#00008b"/><stop offset="1"/></linearGradient><path fill="url(#z)" d="M330.56,281.86c0,0,6.13-0.19,14.94-2.3c8.81-2.11,10.34-3.45,10.34-3.45l-1.92,7.85
			c0,0-4.41,3.06-10.73,3.64c-6.32,0.57-13.22,0.77-13.22,0.77L330.56,281.86z"/><path d="M302.98,320.93c0,0,1.72,9.19,7.66,12.64s11.68,6.13,11.68,6.13l27.2,20.69l-43.09,17.43c0,0,5.55,13.02,10.15,19.54
			c4.6,6.51,7.85,9.58,7.85,9s27.2-13.22,41.75-18.77c14.56-5.55,21.83-8.81,24.52-14.36c2.68-5.55-3.06-11.87-5.75-16.85
			c-2.68-4.98-20.88-30.64-24.13-34.28s-5.94-4.79-5.94-4.79S325,323.04,302.98,320.93z"/><linearGradient id="A" x1="281.142" x2="313.319" y1="405.107" y2="405.107" gradientUnits="userSpaceOnUse"><stop offset="0" stop-color="#270036"/><stop offset=".594" stop-color="#4f008b"/><stop offset="1" stop-color="#4c24b1"/></linearGradient><path fill="url(#A)" d="M306.42,377.81l-11.68-0.19l-13.6,6.13l5.75,13.41l2.68-1.72c0,0,1.34,12.83,5.17,21.45
			c3.83,8.62,12.26,15.9,14.17,15.71c1.92-0.19,3.45-3.26,3.45-3.26s-6.7-11.3-5.36-17.62c1.34-6.32,4.21-16.47,4.21-16.47l2.11-2.3
			C313.32,392.94,306.81,381.07,306.42,377.81z"/><path fill="#fff" d="M306.42,377.81l-8.82-0.14c0.44,2.17,1.24,5.53,2.12,6.66c1.2,1.55,8.26,4.02,11.91,10.46l1.69-1.84
			C313.32,392.94,306.81,381.07,306.42,377.81z"/><path d="M308.91 432.59c.52-.05 1.01-.32 1.45-.67-3.67-2.41-7.53-6.91-11.22-11.78-5.36-7.09-5.75-21.64-6.51-24.71-.64-2.55-4.59-11.33-5.9-14.21l-5.59 2.52 5.75 13.41 2.68-1.72c0 0 1.34 12.83 5.17 21.45C298.57 425.5 307 432.78 308.91 432.59zM340.18 190.69c0 0-.57-4.88-.86-6.9-.29-2.01.86-12.35 6.46-16.52 5.6-4.17 15.37-4.6 21.26-1.72 5.89 2.87 11.2 6.18 12.35 8.19 1.15 2.01 1.72 5.75 1.29 6.9s-1.15 1.15-1.15 1.15l-6.03-5.03c0 0-4.45 4.6-4.6 5.75-.14 1.15-1.58 7.61-1.58 7.61s-2.73-.14-2.73-.57-2.73-8.04-4.74-7.76c-2.01.29-4.69-.29-5.89 4.31-.34 1.32-1.01 4.6-1.01 4.6l-8.91 3.59L340.18 190.69z"/><linearGradient id="B" x1="344.059" x2="378.917" y1="194.497" y2="194.497" gradientUnits="userSpaceOnUse"><stop offset="0" stop-color="#a1baff"/><stop offset=".488" stop-color="#fff"/></linearGradient><path fill="url(#B)" d="M373.51,176.76c0,0-4.45,4.6-4.6,5.75c-0.14,1.15-1.58,7.61-1.58,7.61s-2.73-0.14-2.73-0.57
			s-2.73-8.04-4.74-7.76c-2.01,0.29-4.69-0.29-5.89,4.31c-0.34,1.32-1.01,4.6-1.01,4.6l-8.91,3.59l11.78,15.85l2.3-0.96
			c0,0,9.38,3.16,10.25,3.06c0.86-0.1,1.82-4.12,1.82-4.5c0-0.38,1.63-0.77,2.3-0.96c0.67-0.19-0.19-1.63-0.19-1.63l1.63-0.29
			l0.57-3.45c0,0,1.24,0.57,1.63,0.57c0.38,0,1.92-0.67,1.92-0.67l-1.53-10.92l1.72-1.63l0.67-7.28l-0.17-0.38L373.51,176.76z"/><linearGradient id="C" x1="331.989" x2="422.49" y1="255.774" y2="255.774" gradientUnits="userSpaceOnUse"><stop offset="0" stop-color="#7633ff"/><stop offset=".159" stop-color="#7137ff"/><stop offset=".353" stop-color="#6243ff"/><stop offset=".568" stop-color="#4957ff"/><stop offset=".794" stop-color="#2672ff"/><stop offset="1" stop-color="#0090ff"/></linearGradient><path fill="url(#C)" d="M332.09,240.1c0,0,2.49,9.19,24.9,24.32c22.41,15.13,37.35,24.13,42.52,27.01
			c5.17,2.87,13.02,9.96,13.02,9.96s4.41-4.98,6.89-9.58c2.49-4.6,3.06-6.9,3.06-6.9s-27.58-18.96-35.82-25.47
			c-8.24-6.51-19.34-19.73-20.49-22.41c-1.15-2.68-1.34-20.49-9.58-25.09c-8.24-4.6-17.43,0-21.45,9.77S332.09,240.1,332.09,240.1z"/><path d="M415.16,297.71l6.9,2.87c0,0,2.73-2.44,4.17-6.61c1.44-4.17,2.01-6.03,2.01-6.03l-5.75-3.02
			C422.49,284.92,417.75,295.55,415.16,297.71z"/><linearGradient id="D" x1="424.357" x2="459.12" y1="293.971" y2="293.971" gradientUnits="userSpaceOnUse"><stop offset="0" stop-color="#a1baff"/><stop offset=".488" stop-color="#fff"/></linearGradient><path fill="url(#D)" d="M428.24,289.09c0,0,9.77-1.15,12.21-1.15c2.44,0,7.18,1.44,11.35,3.3s7.33,4.74,7.33,5.46
			s-0.72,1.87-3.02,1.44s-11.64-2.44-13.22-2.3c-1.58,0.14-9.19,4.17-11.64,4.17s-6.9-1.72-6.9-1.72S428.24,291.24,428.24,289.09z"/><linearGradient id="E" x1="420.766" x2="450.474" y1="154.005" y2="154.005" gradientUnits="userSpaceOnUse"><stop offset="0" stop-color="#a1baff"/><stop offset=".488" stop-color="#fff"/></linearGradient><path fill="url(#E)" d="M420.77,155.93c0,0,4.6-2.2,7.09-3.54s8.04-4.21,12.26-5.94c4.21-1.72,9.77-4.79,10.34-3.26
			s-10.92,8.24-10.92,8.24s3.83,4.6,3.83,5.36c0,0.77-4.02,7.47-4.02,7.47s-3.15,1.14-4.21,0.96c-1.06-0.18-3.64-2.3-3.64-2.3
			l-5.75,1.72C425.75,164.64,422.68,157.55,420.77,155.93z"/></g></g><g><circle cx="234.66" cy="122.44" r="1.98" fill="#fff"/><path fill="#fff" d="M306.51 181.82c0 .54-.44.98-.98.98-.54 0-.98-.44-.98-.98 0-.54.44-.98.98-.98C306.07 180.84 306.51 181.28 306.51 181.82zM190.14 198.54c0 1.48-1.2 2.67-2.67 2.67-1.48 0-2.67-1.2-2.67-2.67 0-1.48 1.2-2.67 2.67-2.67C188.94 195.87 190.14 197.07 190.14 198.54zM118.33 186.11c0 1.14-.92 2.06-2.05 2.06-1.14 0-2.06-.92-2.06-2.06 0-1.14.92-2.06 2.06-2.06C117.41 184.06 118.33 184.98 118.33 186.11zM297.84 127.68c0 1.03-.84 1.87-1.87 1.87-1.03 0-1.87-.84-1.87-1.87 0-1.03.84-1.87 1.87-1.87C297.01 125.81 297.84 126.65 297.84 127.68z"/></g><g><circle cx="653.98" cy="107.11" r="2.45" fill="#fff"/><path fill="#fff" d="M742.98 180.67c0 .67-.54 1.21-1.21 1.21-.67 0-1.21-.54-1.21-1.21 0-.67.54-1.21 1.21-1.21C742.44 179.46 742.98 180 742.98 180.67zM598.82 201.38c0 1.83-1.48 3.31-3.31 3.31-1.83 0-3.31-1.48-3.31-3.31 0-1.83 1.48-3.31 3.31-3.31C597.34 198.07 598.82 199.55 598.82 201.38zM509.87 185.98c0 1.41-1.14 2.55-2.55 2.55-1.41 0-2.55-1.14-2.55-2.55 0-1.41 1.14-2.55 2.55-2.55C508.73 183.44 509.87 184.58 509.87 185.98zM732.25 113.6c0 1.28-1.04 2.32-2.32 2.32-1.28 0-2.32-1.04-2.32-2.32 0-1.28 1.04-2.32 2.32-2.32C731.21 111.28 732.25 112.32 732.25 113.6z"/></g><g><circle cx="546.93" cy="401.86" r="2.45" fill="#fff"/><path fill="#fff" d="M635.94 475.42c0 .67-.54 1.21-1.21 1.21-.67 0-1.21-.54-1.21-1.21 0-.67.54-1.21 1.21-1.21C635.4 474.2 635.94 474.75 635.94 475.42zM491.78 496.13c0 1.83-1.48 3.31-3.31 3.31-1.83 0-3.31-1.48-3.31-3.31 0-1.83 1.48-3.31 3.31-3.31C490.3 492.82 491.78 494.3 491.78 496.13zM402.83 480.73c0 1.41-1.14 2.55-2.55 2.55-1.41 0-2.55-1.14-2.55-2.55 0-1.41 1.14-2.55 2.55-2.55C401.69 478.18 402.83 479.32 402.83 480.73zM625.21 408.35c0 1.28-1.04 2.32-2.32 2.32-1.28 0-2.32-1.04-2.32-2.32 0-1.28 1.04-2.32 2.32-2.32C624.17 406.03 625.21 407.07 625.21 408.35z"/></g><g><circle cx="446.93" cy="515.29" r="1.33" fill="#fff"/><path fill="#fff" d="M495.32 555.29c0 .36-.29.66-.66.66-.36 0-.66-.29-.66-.66s.29-.66.66-.66C495.03 554.63 495.32 554.92 495.32 555.29zM416.94 566.55c0 1-.81 1.8-1.8 1.8-1 0-1.8-.81-1.8-1.8 0-1 .81-1.8 1.8-1.8C416.13 564.75 416.94 565.55 416.94 566.55zM368.57 558.17c0 .76-.62 1.38-1.38 1.38-.76 0-1.38-.62-1.38-1.38 0-.76.62-1.38 1.38-1.38C367.95 556.79 368.57 557.41 368.57 558.17zM489.49 518.82c0 .7-.56 1.26-1.26 1.26-.7 0-1.26-.56-1.26-1.26 0-.7.56-1.26 1.26-1.26C488.92 517.56 489.49 518.12 489.49 518.82z"/></g><g><circle cx="163.33" cy="296.44" r="1.33" fill="#fff"/><path fill="#fff" d="M211.73 336.44c0 .36-.29.66-.66.66-.36 0-.66-.29-.66-.66 0-.36.29-.66.66-.66C211.43 335.78 211.73 336.08 211.73 336.44zM133.34 347.7c0 1-.81 1.8-1.8 1.8-1 0-1.8-.81-1.8-1.8 0-1 .81-1.8 1.8-1.8C132.54 345.9 133.34 346.71 133.34 347.7zM84.98 339.33c0 .76-.62 1.38-1.38 1.38-.76 0-1.38-.62-1.38-1.38 0-.76.62-1.38 1.38-1.38C84.36 337.95 84.98 338.56 84.98 339.33zM205.89 299.97c0 .7-.56 1.26-1.26 1.26-.7 0-1.26-.56-1.26-1.26 0-.7.56-1.26 1.26-1.26C205.33 298.71 205.89 299.28 205.89 299.97z"/></g><g><circle cx="666.86" cy="265.87" r="1.33" fill="#fff"/><path fill="#fff" d="M715.26 305.87c0 .36-.29.66-.66.66s-.66-.29-.66-.66c0-.36.29-.66.66-.66S715.26 305.5 715.26 305.87zM636.87 317.13c0 1-.81 1.8-1.8 1.8-1 0-1.8-.81-1.8-1.8 0-1 .81-1.8 1.8-1.8C636.07 315.33 636.87 316.14 636.87 317.13zM588.51 308.76c0 .76-.62 1.38-1.38 1.38-.76 0-1.38-.62-1.38-1.38 0-.76.62-1.38 1.38-1.38C587.89 307.37 588.51 307.99 588.51 308.76zM709.42 269.4c0 .7-.56 1.26-1.26 1.26-.7 0-1.26-.56-1.26-1.26 0-.7.56-1.26 1.26-1.26C708.86 268.14 709.42 268.71 709.42 269.4z"/></g><g><circle cx="521.14" cy="177.68" r="1.33" fill="#fff"/><path fill="#fff" d="M569.54 217.68c0 .36-.29.66-.66.66s-.66-.29-.66-.66c0-.36.29-.66.66-.66S569.54 217.31 569.54 217.68zM491.15 228.94c0 1-.81 1.8-1.8 1.8-1 0-1.8-.81-1.8-1.8 0-1 .81-1.8 1.8-1.8C490.35 227.14 491.15 227.95 491.15 228.94zM442.79 220.57c0 .76-.62 1.38-1.38 1.38-.76 0-1.38-.62-1.38-1.38 0-.76.62-1.38 1.38-1.38C442.17 219.18 442.79 219.8 442.79 220.57zM563.7 181.21c0 .7-.56 1.26-1.26 1.26-.7 0-1.26-.56-1.26-1.26 0-.7.56-1.26 1.26-1.26C563.14 179.95 563.7 180.51 563.7 181.21z"/></g><linearGradient id="F" x1="621.302" x2="751.304" y1="79.434" y2="79.434" gradientUnits="userSpaceOnUse"><stop offset="0" stop-color="#a1baff"/><stop offset=".089" stop-color="#acc2ff"/><stop offset=".499" stop-color="#d9e3ff"/><stop offset=".816" stop-color="#f5f7ff"/><stop offset="1" stop-color="#fff"/></linearGradient><path fill="url(#F)" d="M641.84,74.86c3.83,0,7.41,1.05,10.48,2.88c0.73-10.68,9.62-19.11,20.48-19.11c2.65,0,5.18,0.51,7.5,1.42
	c2.96-9.9,12.13-17.12,22.99-17.12c13.26,0,24,10.75,24,24c0,0.34-0.01,0.68-0.03,1.01c0.01,0,0.02,0,0.03,0c13.25,0,24,10.75,24,24
	c0,13.26-10.75,24-24,24c-0.83,0-1.65-0.04-2.45-0.12h-80.77c-0.74,0.08-1.48,0.12-2.24,0.12c-11.34,0-20.54-9.2-20.54-20.54
	C621.3,84.06,630.5,74.86,641.84,74.86z" opacity=".6"/><linearGradient id="G" x1="458.072" x2="551.49" y1="104.654" y2="104.654" gradientUnits="userSpaceOnUse"><stop offset="0" stop-color="#a1baff"/><stop offset=".089" stop-color="#acc2ff"/><stop offset=".499" stop-color="#d9e3ff"/><stop offset=".816" stop-color="#f5f7ff"/><stop offset="1" stop-color="#fff"/></linearGradient><path fill="url(#G)" d="M539.73,102.05c-2.19,0-4.25,0.6-6,1.65c-0.42-6.12-5.51-10.95-11.73-10.95c-1.34,0-2.63,0.24-3.83,0.66
	c-1.73-5.6-6.96-9.68-13.13-9.68c-0.46,0-0.92,0.03-1.37,0.07c-5.77,0.36-10.57,4.27-12.24,9.58c-1.21-0.42-2.5-0.66-3.85-0.66
	c-6.22,0-11.31,4.83-11.73,10.95c-1.76-1.05-3.81-1.65-6-1.65c-6.5,0-11.76,5.27-11.76,11.76c0,6.5,5.27,11.76,11.76,11.76
	c0.43,0,0.86-0.03,1.28-0.07h18.06c0.53,0.06,1.06,0.1,1.61,0.1c0.47,0,0.94-0.02,1.4-0.07h25.79c0.26,0.01,0.52,0.04,0.79,0.04
	c0.27,0,0.53-0.03,0.79-0.04h18.88c0.42,0.05,0.85,0.07,1.28,0.07c6.5,0,11.76-5.27,11.76-11.76
	C551.49,107.32,546.22,102.05,539.73,102.05z" opacity=".3"/></svg>